<?xml version="1.0" standalone="no"?>
<!DOCTYPE svg PUBLIC "-//W3C//DTD SVG 1.1//EN" "http://www.w3.org/Graphics/SVG/1.1/DTD/svg11.dtd">
<svg width="484" height="484" version="1.1" xmlns="http://www.w3.org/2000/svg">
  <title>30 cells diameter theta maze</title>
  <desc>30 cells diameter theta maze generated by The Maze Generator Website (http://www.mazegenerator.net/).</desc>
  <g fill="none" stroke="#000000" stroke-width="2" stroke-linecap="circle">
    <path d="M 220.37258300203047,265.62741699796953 A 32,32 0 1,1 243,275" />
    <path d="M 224.63119524647567,198.65378243945824 A 48,48 0 0,1 261.36880475352433,198.65378243945824" />
    <path d="M 276.94112549695427,209.05887450304573 A 48,48 0 0,1 276.94112549695427,276.94112549695427" />
    <path d="M 261.36880475352433,287.34621756054173 A 48,48 0 0,1 209.05887450304573,209.05887450304573" />
    <path d="M 197.74516600406093,197.74516600406096 A 64,64 0 0,1 243,179" />
    <path d="M 288.25483399593907,197.74516600406096 A 64,64 0 0,1 302.12829008072237,218.50826032863427" />
    <path d="M 288.25483399593907,288.25483399593907 A 64,64 0 0,1 243,307" />
    <path d="M 197.74516600406096,288.25483399593907 A 64,64 0 0,1 179,243" />
    <path d="M 243,163 A 80,80 0 0,1 299.5685424949238,186.4314575050762" />
    <path d="M 309.51756898420365,198.55438135843181 A 80,80 0 0,1 316.91036260090294,212.3853254107928" />
    <path d="M 321.46282243225846,258.60722576129024 A 80,80 0 0,1 287.44561864156816,309.51756898420365" />
    <path d="M 273.6146745892072,316.91036260090294 A 80,80 0 0,1 258.60722576129029,321.46282243225846" />
    <path d="M 243,323 A 80,80 0 0,1 176.48243101579635,198.55438135843184" />
    <path d="M 212.38532541079277,169.08963739909709 A 80,80 0 0,1 227.39277423870971,164.53717756774157" />
    <path d="M 206.26239049295131,154.30756487891648 A 96,96 0 0,1 296.33474236988184,163.17891721895566" />
    <path d="M 331.69243512108352,206.26239049295137 A 96,96 0 0,1 339,243" />
    <path d="M 331.69243512108352,279.7376095070486 A 96,96 0 0,1 296.33474236988178,322.82108278104437" />
    <path d="M 261.72867091354834,337.15538691871012 A 96,96 0 0,1 243,339" />
    <path d="M 224.27132908645169,337.15538691871012 A 96,96 0 0,1 206.2623904929514,331.69243512108352" />
    <path d="M 189.66525763011822,322.82108278104437 A 96,96 0 0,1 175.11774900609146,310.88225099390854" />
    <path d="M 154.30756487891648,279.73760950704866 A 96,96 0 0,1 148.84461308128988,261.72867091354834" />
    <path d="M 175.11774900609143,175.11774900609146 A 96,96 0 0,1 189.66525763011819,163.17891721895566" />
    <path d="M 243,131 A 112,112 0 0,1 285.86054442489007,139.5254923587359" />
    <path d="M 305.22386609819546,149.87540342211491 A 112,112 0 0,1 352.84795140516178,264.85011606580633" />
    <path d="M 346.47450764126415,285.86054442489007 A 112,112 0 0,1 322.19595949289334,322.19595949289328" />
    <path d="M 285.86054442489007,346.4745076412641 A 112,112 0 0,1 180.7761339018046,336.12459657788509" />
    <path d="M 163.80404050710669,322.19595949289334 A 112,112 0 0,1 133.15204859483819,264.85011606580639" />
    <path d="M 133.15204859483819,221.14988393419364 A 112,112 0 0,1 139.5254923587359,200.13945557510994" />
    <path d="M 149.87540342211491,180.7761339018046 A 112,112 0 0,1 163.80404050710666,163.80404050710669" />
    <path d="M 180.77613390180454,149.87540342211491 A 112,112 0 0,1 200.13945557510988,139.5254923587359" />
    <path d="M 267.97156121806444,117.45948410838651 A 128,128 0 0,1 333.50966799187808,152.49033200812193" />
    <path d="M 361.25658016144473,194.0165206572685 A 128,128 0 0,1 371,243" />
    <path d="M 368.5405158916135,267.97156121806438 A 128,128 0 0,1 361.25658016144473,291.98347934273147" />
    <path d="M 333.50966799187808,333.50966799187808 A 128,128 0 0,1 267.97156121806444,368.5405158916135" />
    <path d="M 243.00000000000003,371 A 128,128 0 0,1 194.01652065726853,361.25658016144473" />
    <path d="M 171.88701017349095,349.4281103747258 A 128,128 0 0,1 136.5718896252742,314.11298982650908" />
    <path d="M 117.45948410838652,267.97156121806449 A 128,128 0 0,1 117.45948410838651,218.02843878193556" />
    <path d="M 124.74341983855531,194.01652065726847 A 128,128 0 0,1 136.5718896252742,171.88701017349098" />
    <path d="M 152.4903320081219,152.49033200812193 A 128,128 0 0,1 171.88701017349092,136.5718896252742" />
    <path d="M 194.01652065726842,124.74341983855533 A 128,128 0 0,1 218.02843878193553,117.45948410838652" />
    <path d="M 201.19900647535741,105.20059165456192 A 144,144 0 0,1 323.0021135548227,123.26837582843348" />
    <path d="M 334.35263291956494,131.68649471576589 A 144,144 0 0,1 354.31350528423411,151.64736708043506" />
    <path d="M 362.73162417156652,162.99788644517727 A 144,144 0 0,1 376.03865268162531,187.89358573942707" />
    <path d="M 384.23308037806521,214.90699362967752 A 144,144 0 0,1 386.30660064079632,228.88553179254325" />
    <path d="M 386.30660064079632,257.11446820745675 A 144,144 0 0,1 380.79940834543811,284.80099352464254" />
    <path d="M 369.99666206616314,310.88113010294364 A 144,144 0 0,1 354.31350528423411,334.35263291956494" />
    <path d="M 344.82337649086287,344.82337649086281 A 144,144 0 0,1 271.09300637032254,384.23308037806521" />
    <path d="M 257.11446820745675,386.30660064079632 A 144,144 0 0,1 214.90699362967752,384.23308037806521" />
    <path d="M 201.19900647535746,380.79940834543811 A 144,144 0 0,1 175.11886989705636,369.99666206616314" />
    <path d="M 162.99788644517733,362.73162417156652 A 144,144 0 0,1 151.64736708043506,354.31350528423411" />
    <path d="M 141.17662350913719,344.82337649086287 A 144,144 0 0,1 99,243.00000000000003" />
    <path d="M 99.693399359203653,228.88553179254336 A 144,144 0 0,1 109.96134731837472,187.89358573942704" />
    <path d="M 131.68649471576589,151.64736708043503 A 144,144 0 0,1 141.17662350913713,141.17662350913719" />
    <path d="M 151.647367080435,131.68649471576595 A 144,144 0 0,1 175.1188698970563,116.0033379338369" />
    <path d="M 227.31725754727032,83.770443732448484 A 160,160 0 0,1 289.445548360714,89.8895462828466" />
    <path d="M 318.42347789215961,101.89259770426318 A 160,160 0 0,1 402.22955626755152,227.31725754727029" />
    <path d="M 402.22955626755152,258.68274245272971 A 160,160 0 0,1 399.92564486451687,274.21445152258053" />
    <path d="M 396.1104537171534,289.44554836071393 A 160,160 0 0,1 390.82072520180589,304.22934917841434" />
    <path d="M 384.10740229573679,318.42347789215961 A 160,160 0 0,1 356.13708498984761,356.13708498984761" />
    <path d="M 318.42347789215967,384.10740229573679 A 160,160 0 0,1 274.21445152258059,399.92564486451687" />
    <path d="M 243.00000000000003,403 A 160,160 0 0,1 211.78554847741947,399.92564486451687" />
    <path d="M 141.49707453381677,366.68167253803796 A 160,160 0 0,1 101.89259770426321,318.42347789215967" />
    <path d="M 95.179274798194143,304.22934917841445 A 160,160 0 0,1 89.8895462828466,289.445548360714" />
    <path d="M 83.770443732448484,258.68274245272966 A 160,160 0 0,1 83,243.00000000000003" />
    <path d="M 83.770443732448484,227.3172575472704 A 160,160 0 0,1 86.074355135483131,211.78554847741947" />
    <path d="M 129.86291501015239,129.86291501015242 A 160,160 0 0,1 141.49707453381666,119.31832746196214" />
    <path d="M 154.10876271686362,109.96486203159276 A 160,160 0 0,1 167.57652210784033,101.89259770426321" />
    <path d="M 260.25101669800267,67.847488105693344 A 176,176 0 0,1 277.33589667483858,70.381790649031444" />
    <path d="M 294.09010319678538,74.578500911131243 A 176,176 0 0,1 325.96582568137558,87.7818574746895" />
    <path d="M 340.78036101145,96.66134823475204 A 176,176 0 0,1 354.65321801280163,106.95016020815828" />
    <path d="M 411.42149908886876,191.90989680321462 A 176,176 0 0,1 398.21814252531044,325.96582568137558" />
    <path d="M 379.04983979184169,354.65321801280157 A 176,176 0 0,1 354.65321801280163,379.04983979184169" />
    <path d="M 340.78036101144994,389.33865176524796 A 176,176 0 0,1 310.3522840962558,405.60279772198646" />
    <path d="M 277.33589667483864,415.61820935096853 A 176,176 0 0,1 243.00000000000003,419" />
    <path d="M 208.66410332516142,415.61820935096853 A 176,176 0 0,1 175.64771590374423,405.60279772198646" />
    <path d="M 160.03417431862442,398.2181425253105 A 176,176 0 0,1 106.95016020815834,354.65321801280169" />
    <path d="M 74.578500911131243,294.09010319678538 A 176,176 0 0,1 67.847488105693344,260.25101669800262" />
    <path d="M 67,243.00000000000003 A 176,176 0 0,1 80.397202278013538,175.64771590374414" />
    <path d="M 96.661348234751983,145.21963898855006 A 176,176 0 0,1 145.21963898855,96.66134823475204" />
    <path d="M 160.03417431862437,87.781857474689531 A 176,176 0 0,1 225.74898330199736,67.847488105693344" />
    <path d="M 243,51 A 192,192 0 0,1 316.47521901409721,65.615129757832932" />
    <path d="M 333.50817347059154,73.671117245115823 A 192,192 0 0,1 412.32888275488415,152.49182652940843" />
    <path d="M 420.38487024216704,169.52478098590274 A 192,192 0 0,1 426.73254446058411,187.26534196714323" />
    <path d="M 431.31077383742024,205.54265817290337 A 192,192 0 0,1 431.31077383742024,280.45734182709663" />
    <path d="M 420.38487024216704,316.47521901409721 A 192,192 0 0,1 391.41800704564548,364.80351055941992" />
    <path d="M 349.66948473976362,402.64216556208874 A 192,192 0 0,1 333.5081734705916,412.32888275488415" />
    <path d="M 261.81929094327569,434.0754675210618 A 192,192 0 0,1 187.26534196714329,426.73254446058411" />
    <path d="M 169.52478098590279,420.38487024216704 A 192,192 0 0,1 152.49182652940846,412.32888275488415" />
    <path d="M 136.33051526023644,402.64216556208874 A 192,192 0 0,1 83.357834437911322,349.66948473976362" />
    <path d="M 65.615129757832989,316.47521901409732 A 192,192 0 0,1 54.689226162579757,280.45734182709668" />
    <path d="M 51.924532478938204,261.81929094327563 A 192,192 0 0,1 83.357834437911265,136.33051526023644" />
    <path d="M 94.581992954354519,121.19648944058005 A 192,192 0 0,1 107.23549801218286,107.23549801218292" />
    <path d="M 169.52478098590262,65.615129757832989 A 192,192 0 0,1 224.18070905672437,51.924532478938204" />
    <path d="M 222.61243481145141,36.001576852183035 A 208,208 0 0,1 322.59815393193867,50.833057237652355" />
    <path d="M 341.05052125980751,59.560377015542144 A 208,208 0 0,1 358.55860846807724,70.054320641070575" />
    <path d="M 374.95380310603826,82.2138257005507 A 208,208 0 0,1 403.78617429944927,111.04619689396174" />
    <path d="M 426.43962298445786,144.94947874019246 A 208,208 0 0,1 435.16694276234762,163.40184606806133" />
    <path d="M 442.04358983229946,182.62078713107184 A 208,208 0 0,1 435.16694276234762,322.59815393193867" />
    <path d="M 426.43962298445786,341.05052125980751 A 208,208 0 0,1 415.94567935892945,358.55860846807718" />
    <path d="M 322.59815393193867,435.16694276234762 A 208,208 0 0,1 243.00000000000003,451" />
    <path d="M 202.4212130206453,447.00333832387196 A 208,208 0 0,1 144.94947874019249,426.43962298445786" />
    <path d="M 127.4413915319228,415.94567935892945 A 208,208 0 0,1 95.921789513198149,390.07821048680194" />
    <path d="M 70.054320641070575,358.55860846807724 A 208,208 0 0,1 50.833057237652412,322.59815393193878" />
    <path d="M 43.956410167700568,303.37921286892816 A 208,208 0 0,1 38.99666167612807,202.42121302064533" />
    <path d="M 43.95641016770054,182.62078713107189 A 208,208 0 0,1 50.833057237652383,163.40184606806128" />
    <path d="M 59.560377015542144,144.94947874019249 A 208,208 0 0,1 70.054320641070547,127.44139153192282" />
    <path d="M 95.921789513198092,95.921789513198149 A 208,208 0 0,1 144.94947874019243,59.560377015542173" />
    <path d="M 243,19 A 224,224 0 0,1 264.95583943382155,20.078621225427895" />
    <path d="M 286.70023213161272,23.304097189676384 A 224,224 0 0,1 308.02376770499956,28.645364795985216" />
    <path d="M 367.44773219639092,56.750806844229857 A 224,224 0 0,1 401.39191898578667,84.608081014213354" />
    <path d="M 429.24919315577012,118.5522678036091 A 224,224 0 0,1 449.94901528252819,157.27891115021987" />
    <path d="M 457.35463520401481,177.97623229500044 A 224,224 0 0,1 465.92137877457208,221.04416056617839" />
    <path d="M 467,243 A 224,224 0 0,1 465.92137877457208,264.95583943382161" />
    <path d="M 449.94901528252825,328.72108884978007 A 224,224 0 0,1 440.55036321403156,348.59286904902348" />
    <path d="M 385.10409565265661,416.15434155325306 A 224,224 0 0,1 177.9762322950005,457.35463520401481" />
    <path d="M 137.40713095097652,440.55036321403156 A 224,224 0 0,1 118.55226780360917,429.24919315577017" />
    <path d="M 84.608081014213383,401.39191898578667 A 224,224 0 0,1 28.645364795985216,308.02376770499961" />
    <path d="M 23.304097189676384,286.70023213161284 A 224,224 0 0,1 20.078621225427895,264.95583943382155" />
    <path d="M 19,243.00000000000003 A 224,224 0 0,1 20.078621225427895,221.04416056617853" />
    <path d="M 23.304097189676384,199.29976786838728 A 224,224 0 0,1 84.608081014213326,84.608081014213383" />
    <path d="M 118.5522678036091,56.750806844229857 A 224,224 0 0,1 157.27891115021976,36.050984717471835" />
    <path d="M 199.29976786838716,23.304097189676412 A 224,224 0 0,1 221.04416056617845,20.078621225427895" />
    <path d="M 266.52411367909457,4.1556655986727549 A 240,240 0 1,1 243,3" />
  </g>
  <g fill="none" stroke="#000000" stroke-width="2" stroke-linecap="butt">
    <line x1="243" y1="51" x2="243" y2="67" />
    <line x1="243" y1="99" x2="243" y2="131" />
    <line x1="243" y1="195" x2="243" y2="211" />
    <line x1="264.95583943382155" y1="20.078621225427895" x2="263.38756518854859" y2="36.001576852183035" />
    <line x1="289.82167728387077" y1="7.6115327032246967" x2="286.70023213161272" y2="23.304097189676384" />
    <line x1="277.33589667483858" y1="70.381790649031444" x2="274.21445152258053" y2="86.074355135483131" />
    <line x1="328.72108884978013" y1="36.050984717471778" x2="322.59815393193867" y2="50.833057237652355" />
    <line x1="316.47521901409721" y1="65.61512975783296" x2="298.10641426057293" y2="109.96134731837472" />
    <line x1="291.98347934273147" y1="124.7434198385553" x2="285.86054442489007" y2="139.5254923587359" />
    <line x1="273.6146745892072" y1="169.08963739909706" x2="261.36880475352433" y2="198.65378243945824" />
    <line x1="356.13521683823944" y1="31.338896556394786" x2="348.59286904902348" y2="45.449636785968465" />
    <line x1="367.44773219639092" y1="56.750806844229857" x2="349.66948473976362" y2="83.357834437911322" />
    <line x1="340.78036101145" y1="96.66134823475204" x2="331.89123728313632" y2="109.96486203159276" />
    <line x1="305.22386609819546" y1="149.87540342211491" x2="296.33474236988184" y2="163.17891721895566" />
    <line x1="367.45079348883235" y1="118.54920651116763" x2="356.13708498984761" y2="129.86291501015239" />
    <line x1="344.82337649086287" y1="141.17662350913713" x2="333.50966799187808" y2="152.49033200812193" />
    <line x1="310.88225099390854" y1="175.11774900609143" x2="299.5685424949238" y2="186.4314575050762" />
    <line x1="288.25483399593907" y1="197.74516600406096" x2="276.94112549695427" y2="209.05887450304573" />
    <line x1="428.52250880705685" y1="90.745611800725072" x2="403.78617429944927" y2="111.04619689396174" />
    <line x1="391.41800704564548" y1="121.19648944058007" x2="379.04983979184169" y2="131.3467819871984" />
    <line x1="366.6816725380379" y1="141.49707453381672" x2="354.31350528423411" y2="151.64736708043506" />
    <line x1="429.24919315577017" y1="118.55226780360908" x2="402.64216556208868" y2="136.33051526023635" />
    <line x1="389.33865176524796" y1="145.21963898855" x2="376.03513796840724" y2="154.10876271686362" />
    <line x1="362.73162417156652" y1="162.99788644517727" x2="309.51756898420365" y2="198.55438135843181" />
    <line x1="412.32888275488415" y1="152.49182652940843" x2="398.21814252531044" y2="160.03417431862437" />
    <line x1="464.73108780270883" y1="151.15597623237844" x2="449.94901528252819" y2="157.27891115021987" />
    <line x1="435.16694276234762" y1="163.40184606806133" x2="390.82072520180589" y2="181.77065082158563" />
    <line x1="376.03865268162531" y1="187.89358573942707" x2="361.25658016144473" y2="194.0165206572685" />
    <line x1="316.91036260090294" y1="212.3853254107928" x2="302.12829008072237" y2="218.50826032863427" />
    <line x1="457.35463520401481" y1="177.97623229500044" x2="426.73254446058411" y2="187.26534196714323" />
    <line x1="396.1104537171534" y1="196.55445163928602" x2="380.79940834543811" y2="201.19900647535741" />
    <line x1="431.31077383742024" y1="205.54265817290337" x2="415.61820935096853" y2="208.66410332516142" />
    <line x1="337.15538691871012" y1="224.27132908645169" x2="321.46282243225846" y2="227.39277423870973" />
    <line x1="402.22955626755152" y1="227.31725754727029" x2="386.30660064079632" y2="228.88553179254325" />
    <line x1="419" y1="243" x2="371" y2="243" />
    <line x1="339" y1="243" x2="291" y2="243" />
    <line x1="465.92137877457208" y1="264.95583943382161" x2="449.998423147817" y2="263.38756518854859" />
    <line x1="478.38846729677527" y1="289.82167728387077" x2="462.69590281032362" y2="286.70023213161272" />
    <line x1="399.92564486451687" y1="274.21445152258053" x2="321.46282243225846" y2="258.60722576129024" />
    <line x1="457.35463520401481" y1="308.0237677049995" x2="411.42149908886881" y2="294.09010319678532" />
    <line x1="464.73108780270883" y1="334.84402376762154" x2="449.94901528252819" y2="328.72108884978013" />
    <line x1="435.16694276234762" y1="322.59815393193867" x2="420.38487024216704" y2="316.47521901409721" />
    <line x1="390.82072520180589" y1="304.22934917841434" x2="361.25658016144473" y2="291.98347934273147" />
    <line x1="316.91036260090294" y1="273.6146745892072" x2="302.12829008072237" y2="267.49173967136574" />
    <line x1="440.55036321403156" y1="348.59286904902348" x2="426.43962298445786" y2="341.05052125980751" />
    <line x1="398.2181425253105" y1="325.96582568137558" x2="369.99666206616314" y2="310.88113010294364" />
    <line x1="442.55270695261095" y1="376.33685592470448" x2="429.24919315577017" y2="367.4477321963908" />
    <line x1="402.64216556208874" y1="349.66948473976356" x2="389.33865176524796" y2="340.78036101144994" />
    <line x1="362.73162417156652" y1="323.0021135548227" x2="336.12459657788509" y2="305.2238660981954" />
    <line x1="416.15434155325312" y1="385.10409565265655" x2="379.04983979184169" y2="354.65321801280157" />
    <line x1="412.70562748477141" y1="412.70562748477141" x2="378.76450198781714" y2="378.76450198781708" />
    <line x1="356.13708498984761" y1="356.13708498984761" x2="344.82337649086287" y2="344.82337649086287" />
    <line x1="288.25483399593907" y1="288.25483399593907" x2="276.94112549695427" y2="276.94112549695427" />
    <line x1="385.10409565265661" y1="416.15434155325306" x2="344.50292546618329" y2="366.6816725380379" />
    <line x1="358.55860846807724" y1="415.9456793589294" x2="323.0021135548227" y2="362.73162417156652" />
    <line x1="314.11298982650908" y1="349.4281103747258" x2="305.22386609819546" y2="336.12459657788509" />
    <line x1="296.33474236988184" y1="322.82108278104437" x2="287.44561864156816" y2="309.51756898420365" />
    <line x1="348.59286904902353" y1="440.55036321403151" x2="341.05052125980757" y2="426.43962298445786" />
    <line x1="316.47521901409726" y1="420.38487024216704" x2="310.3522840962558" y2="405.60279772198646" />
    <line x1="285.86054442489007" y1="346.4745076412641" x2="273.6146745892072" y2="316.91036260090294" />
    <line x1="298.73465803285677" y1="426.73254446058411" x2="289.445548360714" y2="396.1104537171534" />
    <line x1="283.57878697935473" y1="447.00333832387196" x2="277.33589667483864" y2="415.61820935096853" />
    <line x1="274.21445152258059" y1="399.92564486451687" x2="271.09300637032254" y2="384.23308037806521" />
    <line x1="267.97156121806444" y1="368.5405158916135" x2="264.85011606580639" y2="352.84795140516178" />
    <line x1="258.68274245272971" y1="402.22955626755152" x2="257.11446820745675" y2="386.30660064079632" />
    <line x1="243.00000000000003" y1="419" x2="243.00000000000003" y2="403" />
    <line x1="243" y1="355" x2="243" y2="307" />
    <line x1="243" y1="291" x2="243" y2="275" />
    <line x1="221.04416056617842" y1="465.92137877457208" x2="225.74898330199733" y2="418.15251189430666" />
    <line x1="208.66410332516142" y1="415.61820935096853" x2="214.90699362967752" y2="384.23308037806521" />
    <line x1="187.26534196714329" y1="426.73254446058411" x2="191.90989680321468" y2="411.42149908886881" />
    <line x1="196.55445163928607" y1="396.1104537171534" x2="201.19900647535746" y2="380.79940834543811" />
    <line x1="151.15597623237846" y1="464.73108780270888" x2="157.27891115021993" y2="449.94901528252825" />
    <line x1="175.6477159037442" y1="405.60279772198646" x2="181.77065082158566" y2="390.82072520180589" />
    <line x1="187.8935857394271" y1="376.03865268162531" x2="194.01652065726853" y2="361.25658016144473" />
    <line x1="206.2623904929514" y1="331.69243512108352" x2="212.38532541079283" y2="316.91036260090294" />
    <line x1="218.50826032863427" y1="302.12829008072237" x2="224.6311952464757" y2="287.34621756054179" />
    <line x1="137.40713095097652" y1="440.55036321403156" x2="175.11886989705636" y2="369.99666206616314" />
    <line x1="118.55226780360917" y1="429.24919315577017" x2="127.44139153192279" y2="415.94567935892945" />
    <line x1="154.10876271686368" y1="376.0351379684073" x2="171.88701017349095" y2="349.4281103747258" />
    <line x1="180.7761339018046" y1="336.12459657788509" x2="189.66525763011822" y2="322.82108278104437" />
    <line x1="90.745611800725129" y1="428.52250880705691" x2="100.89590434734345" y2="416.15434155325312" />
    <line x1="141.49707453381677" y1="366.6816725380379" x2="151.64736708043509" y2="354.31350528423411" />
    <line x1="84.608081014213383" y1="401.39191898578667" x2="95.921789513198121" y2="390.07821048680194" />
    <line x1="152.49033200812193" y1="333.50966799187813" x2="163.80404050710669" y2="322.19595949289334" />
    <line x1="82.213825700550785" y1="374.95380310603832" x2="94.581992954354575" y2="364.80351055942003" />
    <line x1="83.357834437911322" y1="349.66948473976362" x2="109.96486203159276" y2="331.89123728313632" />
    <line x1="149.87540342211491" y1="305.22386609819546" x2="176.48243101579638" y2="287.44561864156816" />
    <line x1="59.560377015542173" y1="341.05052125980757" x2="101.89259770426321" y2="318.42347789215967" />
    <line x1="65.615129757832989" y1="316.47521901409732" x2="95.179274798194172" y2="304.22934917841445" />
    <line x1="109.96134731837475" y1="298.106414260573" x2="124.74341983855533" y2="291.98347934273158" />
    <line x1="28.645364795985216" y1="308.02376770499961" x2="59.267455539415892" y2="298.73465803285677" />
    <line x1="7.6115327032247251" y1="289.82167728387088" x2="23.304097189676412" y2="286.70023213161284" />
    <line x1="70.381790649031473" y1="277.33589667483864" x2="101.76691962193485" y2="271.09300637032254" />
    <line x1="117.45948410838652" y1="267.97156121806449" x2="133.15204859483822" y2="264.85011606580639" />
    <line x1="148.84461308128988" y1="261.72867091354834" x2="164.53717756774159" y2="258.60722576129029" />
    <line x1="36.001576852183035" y1="263.38756518854859" x2="67.847488105693344" y2="260.25101669800262" />
    <line x1="3" y1="243.00000000000006" x2="19" y2="243.00000000000003" />
    <line x1="67" y1="243.00000000000003" x2="99" y2="243.00000000000003" />
    <line x1="115" y1="243.00000000000003" x2="147" y2="243.00000000000003" />
    <line x1="179" y1="243" x2="195" y2="243" />
    <line x1="23.304097189676384" y1="199.29976786838728" x2="38.99666167612807" y2="202.42121302064533" />
    <line x1="70.381790649031444" y1="208.66410332516142" x2="86.074355135483131" y2="211.78554847741947" />
    <line x1="148.84461308128988" y1="224.27132908645169" x2="164.53717756774157" y2="227.39277423870973" />
    <line x1="89.889546282846567" y1="196.55445163928607" x2="105.20059165456192" y2="201.19900647535746" />
    <line x1="50.833057237652383" y1="163.40184606806128" x2="65.61512975783296" y2="169.52478098590274" />
    <line x1="80.397202278013566" y1="175.64771590374414" x2="95.179274798194143" y2="181.77065082158561" />
    <line x1="109.96134731837472" y1="187.89358573942704" x2="154.30756487891648" y2="206.26239049295137" />
    <line x1="169.08963739909706" y1="212.3853254107928" x2="183.87170991927766" y2="218.50826032863424" />
    <line x1="73.671117245115823" y1="152.49182652940846" x2="116.00333793383688" y2="175.11886989705636" />
    <line x1="70.054320641070547" y1="127.44139153192282" x2="83.357834437911265" y2="136.33051526023644" />
    <line x1="96.661348234752012" y1="145.21963898855006" x2="136.5718896252742" y2="171.88701017349098" />
    <line x1="149.87540342211491" y1="180.7761339018046" x2="176.48243101579635" y2="198.55438135843184" />
    <line x1="69.845658446746938" y1="100.89590434734339" x2="94.581992954354519" y2="121.19648944058005" />
    <line x1="106.95016020815831" y1="131.34678198719837" x2="119.3183274619621" y2="141.49707453381672" />
    <line x1="107.23549801218286" y1="107.23549801218292" x2="118.54920651116761" y2="118.54920651116767" />
    <line x1="129.86291501015236" y1="129.86291501015242" x2="163.80404050710666" y2="163.80404050710669" />
    <line x1="175.11774900609143" y1="175.11774900609146" x2="209.05887450304573" y2="209.05887450304573" />
    <line x1="90.745611800724987" y1="57.477491192943205" x2="121.19648944057998" y2="94.581992954354575" />
    <line x1="136.33051526023638" y1="83.357834437911322" x2="154.10876271686365" y2="109.96486203159276" />
    <line x1="162.9978864451773" y1="123.26837582843349" x2="171.88701017349092" y2="136.5718896252742" />
    <line x1="180.77613390180454" y1="149.87540342211491" x2="198.55438135843184" y2="176.48243101579638" />
    <line x1="137.40713095097647" y1="45.449636785968522" x2="160.03417431862437" y2="87.781857474689559" />
    <line x1="167.57652210784033" y1="101.89259770426324" x2="175.1188698970563" y2="116.0033379338369" />
    <line x1="163.40184606806122" y1="50.833057237652412" x2="169.52478098590265" y2="65.615129757832989" />
    <line x1="181.77065082158555" y1="95.179274798194172" x2="194.01652065726842" y2="124.74341983855533" />
    <line x1="212.38532541079277" y1="169.08963739909709" x2="218.50826032863421" y2="183.87170991927766" />
    <line x1="173.331677458929" y1="13.334319424269893" x2="187.2653419671432" y2="59.267455539415892" />
    <line x1="191.90989680321459" y1="74.578500911131243" x2="201.19900647535741" y2="105.20059165456192" />
    <line x1="199.29976786838716" y1="23.304097189676412" x2="202.42121302064521" y2="38.9966616761281" />
    <line x1="211.78554847741941" y1="86.07435513548316" x2="214.90699362967746" y2="101.76691962193485" />
    <line x1="218.02843878193553" y1="117.45948410838652" x2="227.39277423870971" y2="164.53717756774159" />
    <line x1="219.47588632090549" y1="4.1556655986727264" x2="221.04416056617845" y2="20.078621225427895" />
    <line x1="222.61243481145141" y1="36.001576852183035" x2="224.18070905672437" y2="51.924532478938204" />
    <line x1="225.74898330199736" y1="67.847488105693344" x2="227.31725754727032" y2="83.770443732448484" />
  </g>
</svg>
